<svg viewBox="0 0 24 24" fill="none" xmlns="http://www.w3.org/2000/svg" id="Walking-Round--Streamline-Solar" height="24" width="24">
  <desc>
    Walking Round Streamline Icon: https://streamlinehq.com
  </desc>
  <path d="M15 4.5C15 5.88071 13.8807 7 12.5 7S10 5.88071 10 4.5 11.1193 2 12.5 2 15 3.11929 15 4.5Z" fill="#000000" stroke-width="1"></path>
  <path fill-rule="evenodd" clip-rule="evenodd" d="M10.9292 9.2672c0.1998 -0.01083 0.3925 -0.0172 0.5708 -0.0172 0.5541 0 1.1539 0.06158 1.6938 0.13913 1.5216 0.21853 2.6736 1.34137 3.134 2.72257 0.1043 0.3128 0.4206 0.5032 0.7459 0.449l1.803 -0.3005c0.4086 -0.0681 0.795 0.2079 0.8631 0.6165 0.0681 0.4086 -0.2079 0.795 -0.6165 0.8631l-1.803 0.3005c-1.0534 0.1756 -2.0778 -0.4413 -2.4155 -1.4543 -0.3073 -0.9218 -1.0428 -1.5855 -1.9242 -1.7121 -0.2677 -0.0385 -0.5402 -0.071 -0.8049 -0.093l-0.2712 2.7114c-0.0839 0.8397 -0.0937 1.0614 -0.037 1.2595 0.0566 0.198 0.1822 0.381 0.6977 1.0491l4.429 5.741c0.2531 0.3279 0.1923 0.7989 -0.1357 1.0519 -0.3279 0.253 -0.7989 0.1923 -1.0519 -0.1357l-4.4291 -5.7409c-0.0239 -0.031 -0.0475 -0.0616 -0.0709 -0.0918 -0.4106 -0.5313 -0.7355 -0.9516 -0.8813 -1.4609 -0.1457 -0.5094 -0.0924 -1.038 -0.0249 -1.706 0.0038 -0.038 0.0077 -0.0765 0.0116 -0.1154l0.2541 -2.5408c-1.67336 0.2737 -2.91607 1.8468 -2.91607 3.6977 0 0.4142 -0.33579 0.75 -0.75 0.75 -0.41422 0 -0.75 -0.3358 -0.75 -0.75 0 -2.6407 1.9138 -5.08293 4.67917 -5.2328Zm-0.7821 7.4974c0.4062 0.0812 0.6696 0.4763 0.5884 0.8825 -0.3576 1.7878 -1.3341 3.3923 -2.75778 4.5312l-0.50917 0.4074c-0.32345 0.2587 -0.79542 0.2063 -1.05417 -0.1172 -0.25876 -0.3234 -0.20632 -0.7954 0.11713 -1.0542l0.50916 -0.4073c1.1481 -0.9185 1.93558 -2.2124 2.22392 -3.6541 0.08124 -0.4062 0.47635 -0.6696 0.88251 -0.5883Z" fill="#000000" stroke-width="1"></path>
</svg>